<?xml version="1.0" encoding="UTF-8" standalone="no"?>
<!DOCTYPE svg PUBLIC "-//W3C//DTD SVG 20010904//EN"
              "http://www.w3.org/TR/2001/REC-SVG-20010904/DTD/svg10.dtd">

<svg xmlns="http://www.w3.org/2000/svg"
     width="144.51mm" height="144.51mm"
     viewBox="0 0 512 512">
  <path id="Selection"
        fill="white" stroke="black" stroke-width="1"
        d="M 35.00,26.53
           C 26.96,29.04 23.01,33.41 23.01,42.00
             23.01,45.08 23.10,47.20 24.57,50.00
             27.37,55.36 45.58,72.58 51.00,78.00
             51.00,78.00 183.00,210.00 183.00,210.00
             183.00,210.00 217.00,244.00 217.00,244.00
             219.54,246.54 227.79,253.26 226.80,257.00
             226.24,259.14 221.68,263.31 220.00,265.00
             220.00,265.00 203.00,282.00 203.00,282.00
             203.00,282.00 140.00,345.00 140.00,345.00
             140.00,345.00 86.00,399.00 86.00,399.00
             86.00,399.00 46.00,439.00 46.00,439.00
             41.40,443.60 27.94,456.41 25.15,461.00
             17.05,474.30 30.35,490.59 45.00,484.85
             50.05,482.88 56.98,475.02 61.00,471.00
             61.00,471.00 91.00,441.00 91.00,441.00
             91.00,441.00 196.00,336.00 196.00,336.00
             196.00,336.00 237.00,295.00 237.00,295.00
             239.69,292.31 248.41,282.15 252.00,282.62
             254.76,282.98 261.76,290.76 264.00,293.00
             264.00,293.00 295.00,324.00 295.00,324.00
             295.00,324.00 412.00,441.00 412.00,441.00
             412.00,441.00 447.00,476.00 447.00,476.00
             453.44,482.43 459.06,488.31 469.00,485.20
             478.55,482.21 483.07,470.87 478.43,462.00
             476.16,457.66 469.62,451.62 466.00,448.00
             466.00,448.00 443.00,425.00 443.00,425.00
             443.00,425.00 315.00,297.00 315.00,297.00
             315.00,297.00 285.00,267.00 285.00,267.00
             282.57,264.57 275.23,258.66 276.20,255.00
             276.76,252.86 281.32,248.69 283.00,247.00
             283.00,247.00 300.00,230.00 300.00,230.00
             300.00,230.00 363.00,167.00 363.00,167.00
             363.00,167.00 417.00,113.00 417.00,113.00
             417.00,113.00 457.00,73.00 457.00,73.00
             461.60,68.40 475.06,55.59 477.85,51.00
             486.00,37.61 472.77,21.37 458.00,27.15
             452.95,29.12 446.02,36.98 442.00,41.00
             442.00,41.00 412.00,71.00 412.00,71.00
             412.00,71.00 307.00,176.00 307.00,176.00
             307.00,176.00 266.00,217.00 266.00,217.00
             263.31,219.69 254.59,229.85 251.00,229.38
             248.24,229.02 241.24,221.24 239.00,219.00
             239.00,219.00 208.00,188.00 208.00,188.00
             208.00,188.00 91.00,71.00 91.00,71.00
             91.00,71.00 59.00,39.00 59.00,39.00
             51.27,31.27 46.95,24.60 35.00,26.53 Z" />
</svg>
