<?xml version="1.0" encoding="UTF-8" standalone="no"?>
<!DOCTYPE svg PUBLIC "-//W3C//DTD SVG 20010904//EN"
              "http://www.w3.org/TR/2001/REC-SVG-20010904/DTD/svg10.dtd">

<svg xmlns="http://www.w3.org/2000/svg"
     width="144.51mm" height="144.51mm"
     viewBox="0 0 512 512">
  <path id="Selection #1"
        fill="white" stroke="black" stroke-width="1"
        d="M 359.00,25.53
           C 350.98,28.10 342.67,37.85 336.91,44.00
             336.91,44.00 326.09,54.09 326.09,54.09
             326.09,54.09 318.96,61.99 318.96,61.99
             318.96,61.99 310.09,70.09 310.09,70.09
             310.09,70.09 302.96,77.99 302.96,77.99
             302.96,77.99 294.09,86.09 294.09,86.09
             294.09,86.09 285.99,94.96 285.99,94.96
             285.99,94.96 278.09,102.09 278.09,102.09
             278.09,102.09 269.99,110.96 269.99,110.96
             269.99,110.96 262.09,118.09 262.09,118.09
             262.09,118.09 254.96,125.99 254.96,125.99
             254.96,125.99 246.09,134.09 246.09,134.09
             246.09,134.09 238.96,141.99 238.96,141.99
             238.96,141.99 230.09,150.09 230.09,150.09
             230.09,150.09 221.99,158.96 221.99,158.96
             221.99,158.96 214.09,166.09 214.09,166.09
             214.09,166.09 205.99,174.96 205.99,174.96
             205.99,174.96 198.09,182.09 198.09,182.09
             198.09,182.09 190.96,189.99 190.96,189.99
             190.96,189.99 178.58,202.00 178.58,202.00
             178.58,202.00 166.09,214.09 166.09,214.09
             166.09,214.09 158.96,221.99 158.96,221.99
             158.96,221.99 150.09,230.09 150.09,230.09
             150.09,230.09 143.91,237.00 143.91,237.00
             137.24,244.11 130.04,248.81 132.68,260.00
             134.40,267.25 140.08,270.77 144.83,276.00
             144.83,276.00 158.96,290.01 158.96,290.01
             158.96,290.01 166.09,297.91 166.09,297.91
             166.09,297.91 176.83,308.00 176.83,308.00
             176.83,308.00 190.96,322.01 190.96,322.01
             190.96,322.01 198.09,329.91 198.09,329.91
             198.09,329.91 206.96,338.01 206.96,338.01
             206.96,338.01 214.09,345.91 214.09,345.91
             214.09,345.91 222.96,354.01 222.96,354.01
             222.96,354.01 230.09,361.91 230.09,361.91
             230.09,361.91 238.96,370.01 238.96,370.01
             238.96,370.01 246.09,377.91 246.09,377.91
             246.09,377.91 254.96,386.01 254.96,386.01
             254.96,386.01 262.09,393.91 262.09,393.91
             262.09,393.91 270.96,402.01 270.96,402.01
             270.96,402.01 278.09,409.91 278.09,409.91
             278.09,409.91 285.99,417.04 285.99,417.04
             285.99,417.04 294.09,425.91 294.09,425.91
             294.09,425.91 301.99,433.04 301.99,433.04
             301.99,433.04 309.17,440.96 309.17,440.96
             309.17,440.96 318.96,450.01 318.96,450.01
             318.96,450.01 347.00,478.17 347.00,478.17
             353.89,484.40 359.98,490.01 370.00,485.64
             379.42,481.52 382.59,469.72 377.64,461.00
             375.12,456.57 368.77,450.77 365.00,447.00
             365.00,447.00 341.00,423.00 341.00,423.00
             341.00,423.00 221.00,303.00 221.00,303.00
             221.00,303.00 189.00,271.00 189.00,271.00
             186.58,268.58 176.87,259.57 176.20,257.00
             175.21,253.26 183.46,246.54 186.00,244.00
             186.00,244.00 221.00,209.00 221.00,209.00
             221.00,209.00 358.00,72.00 358.00,72.00
             363.42,66.58 375.87,55.48 378.52,49.00
             383.68,36.37 374.77,22.94 359.00,25.53 Z" />
</svg>
