<?xml version="1.0" encoding="UTF-8" standalone="no"?>
<!DOCTYPE svg PUBLIC "-//W3C//DTD SVG 20010904//EN"
              "http://www.w3.org/TR/2001/REC-SVG-20010904/DTD/svg10.dtd">

<svg xmlns="http://www.w3.org/2000/svg"
     width="144.51mm" height="144.51mm"
     viewBox="0 0 512 512">
  <path id="Selection"
        fill="white" stroke="black" stroke-width="1"
        d="M 145.00,26.53
           C 136.96,29.04 133.01,33.41 133.01,42.00
             133.01,45.08 133.10,47.20 134.57,50.00
             136.90,54.46 144.23,61.23 148.00,65.00
             148.00,65.00 172.00,89.00 172.00,89.00
             172.00,89.00 292.00,209.00 292.00,209.00
             292.00,209.00 324.00,241.00 324.00,241.00
             326.42,243.42 336.13,252.43 336.80,255.00
             337.79,258.74 329.54,265.46 327.00,268.00
             327.00,268.00 292.00,303.00 292.00,303.00
             292.00,303.00 157.00,438.00 157.00,438.00
             151.86,443.14 136.52,457.37 134.09,463.00
             129.20,474.33 137.69,486.59 150.00,485.89
             158.02,485.44 162.73,479.27 168.00,474.00
             168.00,474.00 200.00,442.00 200.00,442.00
             200.00,442.00 332.00,310.00 332.00,310.00
             332.00,310.00 367.00,275.00 367.00,275.00
             373.23,268.77 379.93,263.77 378.81,254.00
             378.04,247.22 373.54,243.55 369.00,239.00
             369.00,239.00 347.00,217.00 347.00,217.00
             347.00,217.00 257.00,127.00 257.00,127.00
             257.00,127.00 179.00,49.00 179.00,49.00
             179.00,49.00 167.00,37.00 167.00,37.00
             159.66,29.66 156.14,24.73 145.00,26.53 Z" />
</svg>
